<svg width="210" height="28" viewBox="0 0 210 28" fill="none" xmlns="http://www.w3.org/2000/svg">
<path d="M6.60895 11.7236C7.77734 11.584 9.02401 11.2849 10.2801 10.8153C14.9095 9.08564 17.9138 5.70991 16.9902 3.2758C16.4275 1.79151 14.5346 1 12.0942 1C10.5308 1 8.74324 1.32478 6.93563 2.00004C2.98018 3.4785 0.211367 6.15794 0.0653922 8.42498C-0.0252534 9.29593 0.00476559 10.3234 0.00476559 10.3234C0.588665 19.0721 7.47715 26.1098 16.2033 27V13.3604C16.2033 13.3604 11.824 13.7044 6.60895 11.7236ZM2.55697 6.43365C3.65826 5.19645 5.43585 4.05855 7.43359 3.31202C9.02695 2.71678 10.6386 2.40193 12.0942 2.40193C13.9501 2.40193 15.3527 2.93876 15.6682 3.7694C15.9143 4.41838 15.537 5.39447 14.6588 6.38108C13.5575 7.61829 11.7799 8.75619 9.78214 9.50272C8.18878 10.098 6.57717 10.4128 5.12154 10.4128C4.49114 10.4128 3.91371 10.3509 3.41281 10.2364C2.46691 10.0208 1.7959 9.61779 1.56752 9.09207C1.56046 9.0763 1.55339 9.06111 1.54751 9.04475C1.30147 8.39578 1.67877 7.42026 2.55697 6.43365Z" fill="#003BDE"/>
<path d="M35.9406 8.47692C35.933 8.32154 35.9118 8.16441 35.88 8.00552V8.00319C35.4391 5.83603 32.7745 3.39609 29.068 2.01109C24.4386 0.281461 19.937 0.852165 19.0134 3.28627C18.0899 5.72037 21.0942 9.09611 25.7236 10.8257C26.9632 11.289 28.1934 11.5869 29.3482 11.7288C25.4975 13.1833 22.1083 13.372 20.6121 13.372C20.0894 13.372 19.7969 13.3492 19.7969 13.3492V26.9889C28.523 26.0986 35.4121 19.0609 35.9954 10.3123C35.9954 10.3123 36.0236 9.33327 35.9406 8.47692ZM33.1571 15.9083C32.3648 17.6543 31.28 19.2408 29.9333 20.6241C28.5883 22.0056 27.0303 23.1347 25.3015 23.9811C23.9978 24.6196 22.6269 25.0816 21.2089 25.362V14.7658C22.5304 14.7272 24.6853 14.5473 27.1951 13.8872C29.2664 13.3422 31.217 12.5717 33.0305 11.5863C33.5473 11.3053 34.053 11.0086 34.5468 10.6926C34.5374 10.7924 34.5268 10.8918 34.515 10.9916C34.3214 12.695 33.8664 14.3452 33.1571 15.9083Z" fill="#003BDE"/>
<path d="M202.546 26.62C201.432 26.62 200.456 26.4147 199.62 26.004C198.784 25.608 198.11 25.0433 197.596 24.31L199.18 22.726C199.606 23.254 200.09 23.65 200.632 23.914C201.175 24.178 201.828 24.31 202.59 24.31C203.544 24.31 204.299 24.0607 204.856 23.562C205.414 23.078 205.692 22.4107 205.692 21.56V18.964L206.11 16.632L205.692 14.278V11.44H208.112V21.56C208.112 22.572 207.878 23.452 207.408 24.2C206.939 24.9627 206.286 25.5567 205.45 25.982C204.614 26.4073 203.646 26.62 202.546 26.62ZM202.436 21.78C201.498 21.78 200.647 21.5527 199.884 21.098C199.136 20.6287 198.542 19.9907 198.102 19.184C197.677 18.3773 197.464 17.4753 197.464 16.478C197.464 15.4807 197.677 14.586 198.102 13.794C198.542 13.002 199.136 12.3787 199.884 11.924C200.647 11.4547 201.498 11.22 202.436 11.22C203.272 11.22 204.006 11.3887 204.636 11.726C205.267 12.0633 205.758 12.5327 206.11 13.134C206.462 13.7207 206.638 14.41 206.638 15.202V17.798C206.638 18.5753 206.455 19.2647 206.088 19.866C205.736 20.4673 205.245 20.9367 204.614 21.274C203.984 21.6113 203.258 21.78 202.436 21.78ZM202.92 19.492C203.507 19.492 204.02 19.3673 204.46 19.118C204.9 18.8687 205.238 18.524 205.472 18.084C205.722 17.6293 205.846 17.1013 205.846 16.5C205.846 15.8987 205.722 15.378 205.472 14.938C205.238 14.4833 204.9 14.1313 204.46 13.882C204.02 13.6327 203.507 13.508 202.92 13.508C202.334 13.508 201.813 13.6327 201.358 13.882C200.918 14.1313 200.574 14.4833 200.324 14.938C200.075 15.378 199.95 15.8987 199.95 16.5C199.95 17.0867 200.075 17.6073 200.324 18.062C200.574 18.5167 200.918 18.8687 201.358 19.118C201.813 19.3673 202.334 19.492 202.92 19.492Z" fill="#262930"/>
<path d="M189.729 22V11.44H192.149V22H189.729ZM192.149 16.126L191.313 15.708C191.313 14.3733 191.607 13.2953 192.193 12.474C192.795 11.638 193.697 11.22 194.899 11.22C195.427 11.22 195.904 11.3153 196.329 11.506C196.755 11.6967 197.151 12.0047 197.518 12.43L195.934 14.058C195.743 13.8527 195.53 13.706 195.296 13.618C195.061 13.53 194.789 13.486 194.481 13.486C193.807 13.486 193.249 13.6987 192.809 14.124C192.369 14.5493 192.149 15.2167 192.149 16.126Z" fill="#262930"/>
<path d="M182.393 22.22C181.366 22.22 180.435 21.978 179.599 21.494C178.763 20.9953 178.096 20.328 177.597 19.492C177.113 18.656 176.871 17.7247 176.871 16.698C176.871 15.6713 177.113 14.7473 177.597 13.926C178.096 13.1047 178.763 12.452 179.599 11.968C180.435 11.4693 181.366 11.22 182.393 11.22C183.434 11.22 184.373 11.462 185.209 11.946C186.045 12.43 186.705 13.09 187.189 13.926C187.688 14.7473 187.937 15.6713 187.937 16.698C187.937 17.7247 187.688 18.656 187.189 19.492C186.705 20.328 186.045 20.9953 185.209 21.494C184.373 21.978 183.434 22.22 182.393 22.22ZM182.393 19.888C182.994 19.888 183.522 19.756 183.977 19.492C184.446 19.2133 184.806 18.832 185.055 18.348C185.319 17.864 185.451 17.314 185.451 16.698C185.451 16.082 185.319 15.5393 185.055 15.07C184.791 14.6007 184.432 14.234 183.977 13.97C183.522 13.6913 182.994 13.552 182.393 13.552C181.806 13.552 181.278 13.6913 180.809 13.97C180.354 14.234 179.995 14.6007 179.731 15.07C179.482 15.5393 179.357 16.082 179.357 16.698C179.357 17.314 179.482 17.864 179.731 18.348C179.995 18.832 180.354 19.2133 180.809 19.492C181.278 19.756 181.806 19.888 182.393 19.888Z" fill="#262930"/>
<path d="M173.605 22.22C173.136 22.22 172.747 22.066 172.439 21.758C172.146 21.4353 171.999 21.0467 171.999 20.592C171.999 20.1227 172.146 19.734 172.439 19.426C172.747 19.118 173.136 18.964 173.605 18.964C174.075 18.964 174.456 19.118 174.749 19.426C175.057 19.734 175.211 20.1227 175.211 20.592C175.211 21.0467 175.057 21.4353 174.749 21.758C174.456 22.066 174.075 22.22 173.605 22.22Z" fill="#262930"/>
<path d="M165.131 22.22C164.075 22.22 163.122 21.9853 162.271 21.516C161.435 21.032 160.768 20.372 160.269 19.536C159.785 18.7 159.543 17.7613 159.543 16.72C159.543 15.6787 159.785 14.7473 160.269 13.926C160.753 13.09 161.406 12.43 162.227 11.946C163.063 11.462 163.987 11.22 164.999 11.22C165.982 11.22 166.847 11.4473 167.595 11.902C168.358 12.3567 168.952 12.98 169.377 13.772C169.817 14.564 170.037 15.466 170.037 16.478C170.037 16.654 170.023 16.8373 169.993 17.028C169.979 17.204 169.949 17.402 169.905 17.622H161.237V15.642H168.651L167.749 16.434C167.72 15.7887 167.595 15.246 167.375 14.806C167.155 14.366 166.84 14.0287 166.429 13.794C166.033 13.5593 165.542 13.442 164.955 13.442C164.339 13.442 163.804 13.574 163.349 13.838C162.895 14.102 162.543 14.476 162.293 14.96C162.044 15.4293 161.919 15.994 161.919 16.654C161.919 17.314 162.051 17.8933 162.315 18.392C162.579 18.8907 162.953 19.2793 163.437 19.558C163.921 19.822 164.479 19.954 165.109 19.954C165.652 19.954 166.151 19.8587 166.605 19.668C167.075 19.4773 167.471 19.1987 167.793 18.832L169.333 20.394C168.82 20.9953 168.197 21.45 167.463 21.758C166.73 22.066 165.953 22.22 165.131 22.22Z" fill="#262930"/>
<path d="M154.038 22V7.04001H156.458V22H154.038ZM151.508 13.64V11.44H158.988V13.64H151.508Z" fill="#262930"/>
<path d="M147.517 22V11.44H149.937V22H147.517ZM148.727 9.50401C148.317 9.50401 147.972 9.36467 147.693 9.08601C147.429 8.80734 147.297 8.46267 147.297 8.05201C147.297 7.64134 147.429 7.29667 147.693 7.01801C147.972 6.73934 148.317 6.60001 148.727 6.60001C149.153 6.60001 149.497 6.73934 149.761 7.01801C150.025 7.29667 150.157 7.64134 150.157 8.05201C150.157 8.46267 150.025 8.80734 149.761 9.08601C149.497 9.36467 149.153 9.50401 148.727 9.50401Z" fill="#262930"/>
<path d="M140.608 22.22C139.801 22.22 139.082 22.0513 138.452 21.714C137.821 21.362 137.322 20.8853 136.956 20.284C136.604 19.6827 136.428 19.0007 136.428 18.238V15.202C136.428 14.4393 136.611 13.7573 136.978 13.156C137.344 12.5547 137.843 12.0853 138.474 11.748C139.104 11.396 139.816 11.22 140.608 11.22C141.561 11.22 142.419 11.4693 143.182 11.968C143.959 12.452 144.568 13.112 145.008 13.948C145.462 14.7693 145.69 15.7007 145.69 16.742C145.69 17.7687 145.462 18.7 145.008 19.536C144.568 20.3573 143.959 21.01 143.182 21.494C142.419 21.978 141.561 22.22 140.608 22.22ZM134.954 26.4V11.44H137.374V14.278L136.956 16.852L137.374 19.404V26.4H134.954ZM140.212 19.932C140.798 19.932 141.312 19.8 141.752 19.536C142.206 19.2573 142.558 18.876 142.808 18.392C143.072 17.908 143.204 17.3507 143.204 16.72C143.204 16.0893 143.072 15.532 142.808 15.048C142.558 14.564 142.206 14.19 141.752 13.926C141.312 13.6473 140.798 13.508 140.212 13.508C139.625 13.508 139.104 13.6473 138.65 13.926C138.195 14.19 137.843 14.564 137.594 15.048C137.344 15.532 137.22 16.0893 137.22 16.72C137.22 17.3507 137.344 17.908 137.594 18.392C137.843 18.876 138.195 19.2573 138.65 19.536C139.104 19.8 139.625 19.932 140.212 19.932Z" fill="#262930"/>
<path d="M129.175 22.22C128.588 22.22 128.023 22.1467 127.481 22C126.938 21.8387 126.439 21.6187 125.985 21.34C125.53 21.0467 125.134 20.6947 124.797 20.284L126.337 18.744C126.703 19.1693 127.121 19.492 127.591 19.712C128.075 19.9173 128.617 20.02 129.219 20.02C129.761 20.02 130.172 19.9393 130.451 19.778C130.729 19.6167 130.869 19.382 130.869 19.074C130.869 18.7513 130.737 18.502 130.473 18.326C130.209 18.15 129.864 18.0033 129.439 17.886C129.028 17.754 128.588 17.622 128.119 17.49C127.664 17.358 127.224 17.182 126.799 16.962C126.388 16.7273 126.051 16.412 125.787 16.016C125.523 15.62 125.391 15.1067 125.391 14.476C125.391 13.8013 125.545 13.222 125.853 12.738C126.175 12.254 126.623 11.88 127.195 11.616C127.781 11.352 128.478 11.22 129.285 11.22C130.135 11.22 130.883 11.374 131.529 11.682C132.189 11.9753 132.739 12.4227 133.179 13.024L131.639 14.564C131.331 14.1827 130.979 13.8967 130.583 13.706C130.187 13.5153 129.732 13.42 129.219 13.42C128.735 13.42 128.361 13.4933 128.097 13.64C127.833 13.7867 127.701 13.9993 127.701 14.278C127.701 14.5713 127.833 14.7987 128.097 14.96C128.361 15.1213 128.698 15.2607 129.109 15.378C129.534 15.4953 129.974 15.6273 130.429 15.774C130.898 15.906 131.338 16.0967 131.749 16.346C132.174 16.5807 132.519 16.9033 132.783 17.314C133.047 17.71 133.179 18.2307 133.179 18.876C133.179 19.9027 132.819 20.7167 132.101 21.318C131.382 21.9193 130.407 22.22 129.175 22.22Z" fill="#262930"/>
<path d="M119.095 22.22C118.039 22.22 117.085 21.9853 116.235 21.516C115.399 21.032 114.731 20.372 114.233 19.536C113.749 18.7 113.507 17.7613 113.507 16.72C113.507 15.6787 113.749 14.7473 114.233 13.926C114.717 13.09 115.369 12.43 116.191 11.946C117.027 11.462 117.951 11.22 118.963 11.22C119.945 11.22 120.811 11.4473 121.559 11.902C122.321 12.3567 122.915 12.98 123.341 13.772C123.781 14.564 124.001 15.466 124.001 16.478C124.001 16.654 123.986 16.8373 123.957 17.028C123.942 17.204 123.913 17.402 123.869 17.622H115.201V15.642H122.615L121.713 16.434C121.683 15.7887 121.559 15.246 121.339 14.806C121.119 14.366 120.803 14.0287 120.393 13.794C119.997 13.5593 119.505 13.442 118.919 13.442C118.303 13.442 117.767 13.574 117.313 13.838C116.858 14.102 116.506 14.476 116.257 14.96C116.007 15.4293 115.883 15.994 115.883 16.654C115.883 17.314 116.015 17.8933 116.279 18.392C116.543 18.8907 116.917 19.2793 117.401 19.558C117.885 19.822 118.442 19.954 119.073 19.954C119.615 19.954 120.114 19.8587 120.569 19.668C121.038 19.4773 121.434 19.1987 121.757 18.832L123.297 20.394C122.783 20.9953 122.16 21.45 121.427 21.758C120.693 22.066 119.916 22.22 119.095 22.22Z" fill="#262930"/>
<path d="M103.285 15.466V13.376H107.179C107.957 13.376 108.558 13.178 108.983 12.782C109.423 12.3713 109.643 11.8067 109.643 11.088C109.643 10.4427 109.431 9.90001 109.005 9.46001C108.58 9.02001 107.979 8.80001 107.201 8.80001H103.285V6.60001H107.311C108.279 6.60001 109.13 6.79801 109.863 7.19401C110.597 7.57534 111.161 8.10334 111.557 8.77801C111.968 9.43801 112.173 10.1933 112.173 11.044C112.173 11.9387 111.968 12.716 111.557 13.376C111.161 14.036 110.597 14.5493 109.863 14.916C109.13 15.2827 108.279 15.466 107.311 15.466H103.285ZM101.547 22V6.60001H104.077V22H101.547ZM109.995 22L104.605 15.312L106.959 14.454L113.185 22H109.995Z" fill="#262930"/>
<path d="M95.4382 22.22C94.8515 22.22 94.2868 22.1467 93.7442 22C93.2015 21.8387 92.7028 21.6187 92.2482 21.34C91.7935 21.0467 91.3975 20.6947 91.0602 20.284L92.6002 18.744C92.9668 19.1693 93.3848 19.492 93.8542 19.712C94.3382 19.9173 94.8808 20.02 95.4822 20.02C96.0248 20.02 96.4355 19.9393 96.7142 19.778C96.9928 19.6167 97.1322 19.382 97.1322 19.074C97.1322 18.7513 97.0002 18.502 96.7362 18.326C96.4722 18.15 96.1275 18.0033 95.7022 17.886C95.2915 17.754 94.8515 17.622 94.3822 17.49C93.9275 17.358 93.4875 17.182 93.0622 16.962C92.6515 16.7273 92.3142 16.412 92.0502 16.016C91.7862 15.62 91.6542 15.1067 91.6542 14.476C91.6542 13.8013 91.8082 13.222 92.1162 12.738C92.4388 12.254 92.8862 11.88 93.4582 11.616C94.0449 11.352 94.7415 11.22 95.5482 11.22C96.3988 11.22 97.1468 11.374 97.7922 11.682C98.4522 11.9753 99.0022 12.4227 99.4422 13.024L97.9022 14.564C97.5942 14.1827 97.2422 13.8967 96.8462 13.706C96.4502 13.5153 95.9955 13.42 95.4822 13.42C94.9982 13.42 94.6242 13.4933 94.3602 13.64C94.0962 13.7867 93.9642 13.9993 93.9642 14.278C93.9642 14.5713 94.0962 14.7987 94.3602 14.96C94.6242 15.1213 94.9615 15.2607 95.3722 15.378C95.7975 15.4953 96.2375 15.6273 96.6922 15.774C97.1615 15.906 97.6015 16.0967 98.0122 16.346C98.4375 16.5807 98.7822 16.9033 99.0462 17.314C99.3102 17.71 99.4422 18.2307 99.4422 18.876C99.4422 19.9027 99.0828 20.7167 98.3642 21.318C97.6455 21.9193 96.6702 22.22 95.4382 22.22Z" fill="#262930"/>
<path d="M87.0699 22V11.44H89.4899V22H87.0699ZM88.2799 9.50401C87.8692 9.50401 87.5246 9.36467 87.2459 9.08601C86.9819 8.80734 86.8499 8.46267 86.8499 8.05201C86.8499 7.64134 86.9819 7.29667 87.2459 7.01801C87.5246 6.73934 87.8692 6.60001 88.2799 6.60001C88.7052 6.60001 89.0499 6.73934 89.3139 7.01801C89.5779 7.29667 89.7099 7.64134 89.7099 8.05201C89.7099 8.46267 89.5779 8.80734 89.3139 9.08601C89.0499 9.36467 88.7052 9.50401 88.2799 9.50401Z" fill="#262930"/>
<path d="M81.2688 22.22C80.6821 22.22 80.1175 22.1467 79.5748 22C79.0321 21.8387 78.5335 21.6187 78.0788 21.34C77.6241 21.0467 77.2281 20.6947 76.8908 20.284L78.4308 18.744C78.7975 19.1693 79.2155 19.492 79.6848 19.712C80.1688 19.9173 80.7115 20.02 81.3128 20.02C81.8555 20.02 82.2661 19.9393 82.5448 19.778C82.8235 19.6167 82.9628 19.382 82.9628 19.074C82.9628 18.7513 82.8308 18.502 82.5668 18.326C82.3028 18.15 81.9581 18.0033 81.5328 17.886C81.1221 17.754 80.6821 17.622 80.2128 17.49C79.7581 17.358 79.3181 17.182 78.8928 16.962C78.4821 16.7273 78.1448 16.412 77.8808 16.016C77.6168 15.62 77.4848 15.1067 77.4848 14.476C77.4848 13.8013 77.6388 13.222 77.9468 12.738C78.2695 12.254 78.7168 11.88 79.2888 11.616C79.8755 11.352 80.5721 11.22 81.3788 11.22C82.2295 11.22 82.9775 11.374 83.6228 11.682C84.2828 11.9753 84.8328 12.4227 85.2728 13.024L83.7328 14.564C83.4248 14.1827 83.0728 13.8967 82.6768 13.706C82.2808 13.5153 81.8261 13.42 81.3128 13.42C80.8288 13.42 80.4548 13.4933 80.1908 13.64C79.9268 13.7867 79.7948 13.9993 79.7948 14.278C79.7948 14.5713 79.9268 14.7987 80.1908 14.96C80.4548 15.1213 80.7921 15.2607 81.2028 15.378C81.6281 15.4953 82.0681 15.6273 82.5228 15.774C82.9921 15.906 83.4321 16.0967 83.8428 16.346C84.2681 16.5807 84.6128 16.9033 84.8768 17.314C85.1408 17.71 85.2728 18.2307 85.2728 18.876C85.2728 19.9027 84.9135 20.7167 84.1948 21.318C83.4761 21.9193 82.5008 22.22 81.2688 22.22Z" fill="#262930"/>
<path d="M72.9005 22V11.44H75.3205V22H72.9005ZM74.1105 9.50401C73.6999 9.50401 73.3552 9.36467 73.0765 9.08601C72.8125 8.80734 72.6805 8.46267 72.6805 8.05201C72.6805 7.64134 72.8125 7.29667 73.0765 7.01801C73.3552 6.73934 73.6999 6.60001 74.1105 6.60001C74.5359 6.60001 74.8805 6.73934 75.1445 7.01801C75.4085 7.29667 75.5405 7.64134 75.5405 8.05201C75.5405 8.46267 75.4085 8.80734 75.1445 9.08601C74.8805 9.36467 74.5359 9.50401 74.1105 9.50401Z" fill="#262930"/>
<path d="M64.1395 22V11.44H66.5595V22H64.1395ZM66.5595 16.126L65.7235 15.708C65.7235 14.3733 66.0169 13.2953 66.6035 12.474C67.2049 11.638 68.1069 11.22 69.3095 11.22C69.8375 11.22 70.3142 11.3153 70.7395 11.506C71.1649 11.6967 71.5609 12.0047 71.9275 12.43L70.3435 14.058C70.1529 13.8527 69.9402 13.706 69.7055 13.618C69.4709 13.53 69.1995 13.486 68.8915 13.486C68.2169 13.486 67.6595 13.6987 67.2195 14.124C66.7795 14.5493 66.5595 15.2167 66.5595 16.126Z" fill="#262930"/>
<path d="M56.668 22.22C55.5533 22.22 54.5193 22.022 53.566 21.626C52.6273 21.2153 51.806 20.6507 51.102 19.932C50.398 19.1987 49.8553 18.3553 49.474 17.402C49.0926 16.434 48.902 15.4 48.902 14.3C48.902 13.2 49.0926 12.1733 49.474 11.22C49.8553 10.252 50.398 9.40867 51.102 8.69001C51.806 7.97134 52.6273 7.40667 53.566 6.99601C54.5193 6.58534 55.5533 6.38 56.668 6.38C57.9146 6.38 58.9926 6.58534 59.902 6.99601C60.8113 7.40667 61.618 7.96401 62.322 8.66801L60.606 10.384C60.1513 9.88534 59.594 9.49667 58.934 9.21801C58.2886 8.93934 57.5333 8.8 56.668 8.8C55.9053 8.8 55.2086 8.932 54.578 9.196C53.9473 9.46 53.3973 9.84134 52.928 10.34C52.4733 10.824 52.1213 11.4033 51.872 12.078C51.6226 12.7527 51.498 13.4933 51.498 14.3C51.498 15.1067 51.6226 15.8473 51.872 16.522C52.1213 17.1967 52.4733 17.7833 52.928 18.282C53.3973 18.766 53.9473 19.14 54.578 19.404C55.2086 19.668 55.9053 19.8 56.668 19.8C57.6066 19.8 58.3986 19.6607 59.044 19.382C59.704 19.0887 60.2613 18.6927 60.716 18.194L62.432 19.91C61.728 20.6287 60.8993 21.1933 59.946 21.604C58.9926 22.0147 57.9 22.22 56.668 22.22Z" fill="#262930"/>
</svg>
