<svg width="24" height="24" viewBox="0 0 24 24" fill="none" xmlns="http://www.w3.org/2000/svg">
<path d="M13 13.15V10C13 9.71667 12.9042 9.47917 12.7125 9.2875C12.5208 9.09583 12.2833 9 12 9C11.7167 9 11.4792 9.09583 11.2875 9.2875C11.0958 9.47917 11 9.71667 11 10V13.15L10.1 12.275C9.91667 12.0917 9.6875 12 9.4125 12C9.1375 12 8.9 12.1 8.7 12.3C8.51667 12.4833 8.425 12.7167 8.425 13C8.425 13.2833 8.51667 13.5167 8.7 13.7L11.3 16.3C11.5 16.5 11.7333 16.6 12 16.6C12.2667 16.6 12.5 16.5 12.7 16.3L15.3 13.7C15.4833 13.5167 15.5792 13.2875 15.5875 13.0125C15.5958 12.7375 15.5 12.5 15.3 12.3C15.1167 12.1167 14.8875 12.0208 14.6125 12.0125C14.3375 12.0042 14.1 12.0917 13.9 12.275L13 13.15ZM6 22C5.45 22 4.97917 21.8042 4.5875 21.4125C4.19583 21.0208 4 20.55 4 20V8.825C4 8.55833 4.05 8.30417 4.15 8.0625C4.25 7.82083 4.39167 7.60833 4.575 7.425L9.425 2.575C9.60833 2.39167 9.82083 2.25 10.0625 2.15C10.3042 2.05 10.5583 2 10.825 2H18C18.55 2 19.0208 2.19583 19.4125 2.5875C19.8042 2.97917 20 3.45 20 4V20C20 20.55 19.8042 21.0208 19.4125 21.4125C19.0208 21.8042 18.55 22 18 22H6ZM6 20H18V4H10.85L6 8.85V20Z" fill="#003BDE"/>
</svg>
